# xmcd
#
# Track frame offsets: 
#        183
#        16223
#        49460
#        89480
#        108285
#        153188
#
# Disc length: 2327 seconds
#
# Revision: 1
# Processed by: cddbd v1.5.2PL0 Copyright (c) Steve Scherf et al.
# Submitted via: ExactAudioCopy v0.99pb5
#
DISCID=41091506
DTITLE=Krzak - No 5 Live
DYEAR=1900
DGENRE=Blues
TTITLE0=Zezowaty Kot
TTITLE1=Kwadratowka
TTITLE2=Drzewko Oliwne
TTITLE3=Sciepka
TTITLE4=Blues Dla Dzidka
TTITLE5=Polowanie na Losia
EXTD=
EXTT0=
EXTT1=
EXTT2=
EXTT3=
EXTT4=
EXTT5=
PLAYORDER=
